<svg width="1332" height="199" viewBox="0 0 1332 199" fill="none" xmlns="http://www.w3.org/2000/svg">
<path d="M7.71338 196C5.69671 196 4.04671 195.358 2.76338 194.075C1.48005 192.792 0.838379 191.142 0.838379 189.125V10.375C0.838379 8.35832 1.48005 6.70832 2.76338 5.42499C4.04671 4.14166 5.69671 3.49999 7.71338 3.49999H84.7134C99.9301 3.49999 113.13 5.88332 124.313 10.65C135.68 15.2333 144.48 22.2 150.713 31.55C157.13 40.9 160.338 52.725 160.338 67.025C160.338 81.1417 157.13 92.7833 150.713 101.95C144.48 111.117 135.68 117.9 124.313 122.3C113.13 126.7 99.9301 128.9 84.7134 128.9H51.9884V189.125C51.9884 191.142 51.255 192.792 49.7884 194.075C48.505 195.358 46.855 196 44.8384 196H7.71338ZM51.1634 90.95H83.3384C91.2217 90.95 97.4551 88.9333 102.038 84.9C106.805 80.8667 109.188 74.725 109.188 66.475C109.188 59.5083 107.172 53.6417 103.138 48.875C99.1051 44.1083 92.505 41.725 83.3384 41.725H51.1634V90.95ZM162.25 196C160.784 196 159.409 195.45 158.125 194.35C157.025 193.067 156.475 191.692 156.475 190.225C156.475 189.308 156.567 188.483 156.75 187.75L221.375 11.2C221.925 9.18332 223.025 7.44166 224.675 5.97499C226.509 4.32499 228.984 3.49999 232.1 3.49999H272.8C275.917 3.49999 278.3 4.32499 279.95 5.97499C281.784 7.44166 282.975 9.18332 283.525 11.2L347.876 187.75C348.242 188.483 348.425 189.308 348.425 190.225C348.425 191.692 347.784 193.067 346.501 194.35C345.4 195.45 344.025 196 342.376 196H308.55C305.801 196 303.692 195.358 302.225 194.075C300.942 192.608 300.117 191.325 299.75 190.225L289.025 162.175H215.6L205.15 190.225C204.784 191.325 203.959 192.608 202.675 194.075C201.392 195.358 199.192 196 196.075 196H162.25ZM226.875 122.575H278.025L252.175 49.975L226.875 122.575ZM376.976 196C374.959 196 373.309 195.358 372.026 194.075C370.743 192.792 370.101 191.142 370.101 189.125V10.375C370.101 8.35832 370.743 6.70832 372.026 5.42499C373.309 4.14166 374.959 3.49999 376.976 3.49999H411.626C413.643 3.49999 415.293 4.14166 416.576 5.42499C417.859 6.70832 418.501 8.35832 418.501 10.375V71.425L469.376 8.72499C470.109 7.62499 471.301 6.52499 472.951 5.42499C474.784 4.14166 477.168 3.49999 480.101 3.49999H519.701C521.351 3.49999 522.726 4.14166 523.826 5.42499C524.926 6.52499 525.476 7.80832 525.476 9.27499C525.476 10.5583 525.109 11.6583 524.376 12.575L458.651 95.625L529.601 186.925C530.334 187.658 530.701 188.758 530.701 190.225C530.701 191.692 530.059 193.067 528.776 194.35C527.676 195.45 526.393 196 524.926 196H483.951C480.651 196 478.084 195.267 476.251 193.8C474.601 192.333 473.501 191.233 472.951 190.5L418.501 122.575V189.125C418.501 191.142 417.859 192.792 416.576 194.075C415.293 195.358 413.643 196 411.626 196H376.976ZM559.056 196C557.039 196 555.389 195.358 554.106 194.075C552.823 192.792 552.181 191.142 552.181 189.125V10.375C552.181 8.35832 552.823 6.70832 554.106 5.42499C555.389 4.14166 557.039 3.49999 559.056 3.49999H595.906C597.923 3.49999 599.573 4.14166 600.856 5.42499C602.139 6.70832 602.781 8.35832 602.781 10.375V189.125C602.781 191.142 602.139 192.792 600.856 194.075C599.573 195.358 597.923 196 595.906 196H559.056ZM713.116 198.75C694.783 198.75 679.566 196.183 667.466 191.05C655.366 185.733 646.2 178.858 639.966 170.425C633.733 161.992 630.433 153.008 630.066 143.475C630.066 142.008 630.616 140.725 631.716 139.625C633 138.342 634.466 137.7 636.116 137.7H670.766C673.333 137.7 675.258 138.158 676.541 139.075C678.008 139.992 679.291 141.183 680.391 142.65C681.858 145.4 683.875 148.058 686.441 150.625C689.191 153.192 692.675 155.3 696.891 156.95C701.291 158.417 706.7 159.15 713.116 159.15C723.75 159.15 731.725 157.5 737.041 154.2C742.541 150.9 745.291 146.408 745.291 140.725C745.291 136.692 743.825 133.392 740.891 130.825C737.958 128.075 733.191 125.692 726.591 123.675C720.175 121.475 711.558 119.275 700.741 117.075C686.808 114.142 674.891 110.383 664.991 105.8C655.275 101.033 647.85 94.8917 642.716 87.375C637.583 79.675 635.016 70.1417 635.016 58.775C635.016 47.5917 638.133 37.6 644.366 28.8C650.783 20 659.675 13.125 671.041 8.17499C682.408 3.22499 695.883 0.74999 711.466 0.74999C724.116 0.74999 735.208 2.39999 744.741 5.69999C754.458 8.99999 762.616 13.4 769.216 18.9C775.816 24.4 780.766 30.2667 784.066 36.5C787.55 42.55 789.383 48.5083 789.566 54.375C789.566 55.8417 789.016 57.2167 787.916 58.5C786.816 59.6 785.441 60.15 783.791 60.15H747.491C745.475 60.15 743.733 59.7833 742.266 59.05C740.8 58.3167 739.516 57.125 738.416 55.475C737.316 51.4417 734.383 47.9583 729.616 45.025C725.033 41.9083 718.983 40.35 711.466 40.35C703.4 40.35 697.075 41.8167 692.491 44.75C688.091 47.5 685.891 51.8083 685.891 57.675C685.891 61.3417 687.083 64.55 689.466 67.3C692.033 70.05 696.158 72.4333 701.841 74.45C707.708 76.4667 715.683 78.575 725.766 80.775C742.45 83.8917 755.925 87.8333 766.191 92.6C776.458 97.1833 783.975 103.233 788.741 110.75C793.508 118.083 795.891 127.342 795.891 138.525C795.891 150.992 792.316 161.808 785.166 170.975C778.2 179.958 768.483 186.833 756.016 191.6C743.55 196.367 729.25 198.75 713.116 198.75ZM870.767 196C868.75 196 867.1 195.358 865.817 194.075C864.533 192.792 863.892 191.142 863.892 189.125V46.675H814.942C812.925 46.675 811.275 46.0333 809.992 44.75C808.708 43.2833 808.067 41.6333 808.067 39.8V10.375C808.067 8.35832 808.708 6.70832 809.992 5.42499C811.275 4.14166 812.925 3.49999 814.942 3.49999H962.892C964.908 3.49999 966.558 4.14166 967.842 5.42499C969.125 6.70832 969.767 8.35832 969.767 10.375V39.8C969.767 41.6333 969.125 43.2833 967.842 44.75C966.558 46.0333 964.908 46.675 962.892 46.675H913.942V189.125C913.942 191.142 913.3 192.792 912.017 194.075C910.733 195.358 909.083 196 907.067 196H870.767ZM964.155 196C962.688 196 961.313 195.45 960.03 194.35C958.93 193.067 958.38 191.692 958.38 190.225C958.38 189.308 958.471 188.483 958.655 187.75L1023.28 11.2C1023.83 9.18332 1024.93 7.44166 1026.58 5.97499C1028.41 4.32499 1030.89 3.49999 1034 3.49999H1074.7C1077.82 3.49999 1080.2 4.32499 1081.85 5.97499C1083.69 7.44166 1084.88 9.18332 1085.43 11.2L1149.78 187.75C1150.15 188.483 1150.33 189.308 1150.33 190.225C1150.33 191.692 1149.69 193.067 1148.4 194.35C1147.3 195.45 1145.93 196 1144.28 196H1110.45C1107.7 196 1105.6 195.358 1104.13 194.075C1102.85 192.608 1102.02 191.325 1101.65 190.225L1090.93 162.175H1017.5L1007.05 190.225C1006.69 191.325 1005.86 192.608 1004.58 194.075C1003.3 195.358 1001.1 196 997.98 196H964.155ZM1028.78 122.575H1079.93L1054.08 49.975L1028.78 122.575ZM1178.88 196C1176.86 196 1175.21 195.358 1173.93 194.075C1172.65 192.792 1172.01 191.142 1172.01 189.125V10.375C1172.01 8.35832 1172.65 6.70832 1173.93 5.42499C1175.21 4.14166 1176.86 3.49999 1178.88 3.49999H1208.03C1211.15 3.49999 1213.35 4.23332 1214.63 5.69999C1216.1 6.98332 1217.01 7.99165 1217.38 8.72499L1284.48 114.6V10.375C1284.48 8.35832 1285.12 6.70832 1286.41 5.42499C1287.69 4.14166 1289.34 3.49999 1291.36 3.49999H1324.36C1326.37 3.49999 1328.02 4.14166 1329.31 5.42499C1330.59 6.70832 1331.23 8.35832 1331.23 10.375V189.125C1331.23 190.958 1330.59 192.608 1329.31 194.075C1328.02 195.358 1326.37 196 1324.36 196H1294.93C1292 196 1289.8 195.267 1288.33 193.8C1287.05 192.333 1286.22 191.325 1285.86 190.775L1218.76 89.025V189.125C1218.76 191.142 1218.11 192.792 1216.83 194.075C1215.55 195.358 1213.9 196 1211.88 196H1178.88Z" fill="white"/>
</svg>
